# xmcd
#
# Track frame offsets:
#	150
#	18067
#	34825
#	47355
#	61052
#	73812
#	88155
#	102775
#	119450
#	135847
#	152005
#	170212
#	185345
#	203047
#	221730
#	238355
#	254122
#
# Disc length: 3663
#
# Revision: 1
# Processed by: cddbd v1.5.1PL0 Copyright (c) Steve Scherf et al.
# Submitted via: VisiTrax 2.9.5.180 - For more info visit www.synapsa.com
# Normalized: r0:DSETVAR1
#
DISCID=f10e4d11
DTITLE=Various Artist - CDX 142 August 1996
DYEAR=1996
DGENRE=
TTITLE0=Brady Seals/Wynonna - Another you, another me
TTITLE1=Chris LeDoux - Five dollar fine
TTITLE2=Gary Allan - Her man
TTITLE3=Ruby Lovette - He's your problem now
TTITLE4=George Jones - Honky tonk song
TTITLE5=Aaron Tippin - How's the radio know
TTITLE6=Hal Ketchum - I miss my Mary
TTITLE7=Diamond Rio - It's all in your head
TTITLE8=Clint Black - Like the rain
TTITLE9=Texas Tornados - Little bit is better than nada
TTITLE10=Patty Loveless - Lonely too long
TTITLE11=Suzy Bogguss - No way out
TTITLE12=Texas Tornados - The one I love the most
TTITLE13=Vince Gill - Worlds apart
TTITLE14=Junior Brown - Surf medley
TTITLE15=Cledus T Judd - (She's got a butt) Bigger than the Beatles
TTITLE16=Exit - Holding on to nothing
EXTD=
EXTT0=
EXTT1=
EXTT2=
EXTT3=
EXTT4=
EXTT5=
EXTT6=
EXTT7=
EXTT8=
EXTT9=
EXTT10=
EXTT11=
EXTT12=
EXTT13=
EXTT14=
EXTT15=
EXTT16=
PLAYORDER=
